<mxfile host="app.diagrams.net" modified="2021-02-04T05:00:18.232Z" agent="5.0 (Windows NT 10.0; Win64; x64) AppleWebKit/537.36 (KHTML, like Gecko) Chrome/88.0.4324.104 Safari/537.36" etag="eTwDGVs_k8-hyo5ZcHWb" version="14.2.9" type="github">
  <diagram id="rPP_6-E0DpNTkv8xbdh6" name="Page-1">
    <mxGraphModel dx="1038" dy="548" grid="1" gridSize="10" guides="1" tooltips="1" connect="1" arrows="1" fold="1" page="1" pageScale="1" pageWidth="850" pageHeight="1100" math="0" shadow="0">
      <root>
        <mxCell id="0" />
        <mxCell id="1" parent="0" />
        <mxCell id="YrX9WpURLjw3mro9ffTG-1" value="" style="rounded=0;whiteSpace=wrap;html=1;" vertex="1" parent="1">
          <mxGeometry x="90" y="120" width="490" height="110" as="geometry" />
        </mxCell>
        <mxCell id="YrX9WpURLjw3mro9ffTG-4" value="xref loader" style="text;html=1;strokeColor=none;fillColor=none;align=center;verticalAlign=middle;whiteSpace=wrap;rounded=0;" vertex="1" parent="1">
          <mxGeometry x="190" y="90" width="90" height="20" as="geometry" />
        </mxCell>
        <mxCell id="YrX9WpURLjw3mro9ffTG-7" value="xref lookup" style="shape=cylinder3;whiteSpace=wrap;html=1;boundedLbl=1;backgroundOutline=1;size=15;" vertex="1" parent="1">
          <mxGeometry x="242" y="120" width="60" height="80" as="geometry" />
        </mxCell>
        <mxCell id="YrX9WpURLjw3mro9ffTG-8" value="load to Cache" style="whiteSpace=wrap;html=1;aspect=fixed;" vertex="1" parent="1">
          <mxGeometry x="370" y="135" width="80" height="80" as="geometry" />
        </mxCell>
        <mxCell id="YrX9WpURLjw3mro9ffTG-9" value="startup" style="whiteSpace=wrap;html=1;aspect=fixed;" vertex="1" parent="1">
          <mxGeometry x="110" y="140" width="80" height="80" as="geometry" />
        </mxCell>
        <mxCell id="YrX9WpURLjw3mro9ffTG-10" value="" style="shape=flexArrow;endArrow=classic;html=1;exitX=1;exitY=0.5;exitDx=0;exitDy=0;" edge="1" parent="1" source="YrX9WpURLjw3mro9ffTG-9">
          <mxGeometry width="50" height="50" relative="1" as="geometry">
            <mxPoint x="190" y="230" as="sourcePoint" />
            <mxPoint x="240" y="180" as="targetPoint" />
          </mxGeometry>
        </mxCell>
        <mxCell id="YrX9WpURLjw3mro9ffTG-11" style="edgeStyle=orthogonalEdgeStyle;rounded=0;orthogonalLoop=1;jettySize=auto;html=1;exitX=0.855;exitY=1;exitDx=0;exitDy=-4.35;exitPerimeter=0;entryX=1;entryY=1;entryDx=0;entryDy=-15;entryPerimeter=0;" edge="1" parent="1" source="YrX9WpURLjw3mro9ffTG-7" target="YrX9WpURLjw3mro9ffTG-7">
          <mxGeometry relative="1" as="geometry" />
        </mxCell>
        <mxCell id="YrX9WpURLjw3mro9ffTG-12" value="" style="shape=flexArrow;endArrow=classic;html=1;exitX=1;exitY=0.5;exitDx=0;exitDy=0;exitPerimeter=0;" edge="1" parent="1" source="YrX9WpURLjw3mro9ffTG-7">
          <mxGeometry width="50" height="50" relative="1" as="geometry">
            <mxPoint x="320" y="210" as="sourcePoint" />
            <mxPoint x="360" y="170" as="targetPoint" />
          </mxGeometry>
        </mxCell>
        <mxCell id="YrX9WpURLjw3mro9ffTG-13" value="" style="rounded=0;whiteSpace=wrap;html=1;" vertex="1" parent="1">
          <mxGeometry x="90" y="250" width="490" height="110" as="geometry" />
        </mxCell>
        <mxCell id="YrX9WpURLjw3mro9ffTG-14" value="API rrequest" style="whiteSpace=wrap;html=1;aspect=fixed;" vertex="1" parent="1">
          <mxGeometry x="120" y="260" width="80" height="80" as="geometry" />
        </mxCell>
        <mxCell id="YrX9WpURLjw3mro9ffTG-15" value="get matching value of input from cache" style="whiteSpace=wrap;html=1;aspect=fixed;" vertex="1" parent="1">
          <mxGeometry x="242" y="250" width="80" height="80" as="geometry" />
        </mxCell>
        <mxCell id="YrX9WpURLjw3mro9ffTG-16" value="respond with out put value" style="whiteSpace=wrap;html=1;aspect=fixed;" vertex="1" parent="1">
          <mxGeometry x="370" y="250" width="80" height="80" as="geometry" />
        </mxCell>
        <mxCell id="YrX9WpURLjw3mro9ffTG-17" value="" style="shape=flexArrow;endArrow=classic;html=1;exitX=1;exitY=0.5;exitDx=0;exitDy=0;" edge="1" parent="1">
          <mxGeometry width="50" height="50" relative="1" as="geometry">
            <mxPoint x="200" y="289.5" as="sourcePoint" />
            <mxPoint x="250" y="289.5" as="targetPoint" />
          </mxGeometry>
        </mxCell>
        <mxCell id="YrX9WpURLjw3mro9ffTG-20" value="" style="shape=flexArrow;endArrow=classic;html=1;exitX=1;exitY=0.5;exitDx=0;exitDy=0;" edge="1" parent="1">
          <mxGeometry width="50" height="50" relative="1" as="geometry">
            <mxPoint x="310" y="289.5" as="sourcePoint" />
            <mxPoint x="360" y="289.5" as="targetPoint" />
          </mxGeometry>
        </mxCell>
      </root>
    </mxGraphModel>
  </diagram>
</mxfile>
